<svg width="180" height="40" viewBox="0 0 180 40" fill="none" xmlns="http://www.w3.org/2000/svg">
<path d="M43.3203 34.1045H41.2939V33.5918H43.3203C43.7435 33.5918 44.0869 33.5234 44.3506 33.3867C44.6175 33.2467 44.8112 33.0579 44.9316 32.8203C45.0553 32.5827 45.1172 32.3158 45.1172 32.0195C45.1172 31.7298 45.0553 31.4629 44.9316 31.2188C44.8112 30.9746 44.6175 30.7793 44.3506 30.6328C44.0869 30.4831 43.7435 30.4082 43.3203 30.4082H41.5039V37H40.9033V29.8906H43.3203C43.8411 29.8906 44.279 29.9801 44.6338 30.1592C44.9919 30.3382 45.262 30.5872 45.4443 30.9062C45.6266 31.2253 45.7178 31.5931 45.7178 32.0098C45.7178 32.446 45.6266 32.8219 45.4443 33.1377C45.262 33.4502 44.9935 33.6895 44.6387 33.8555C44.2839 34.0215 43.8444 34.1045 43.3203 34.1045ZM48.5381 34.4414V34.2803C48.5381 33.8962 48.5934 33.5413 48.7041 33.2158C48.8148 32.8903 48.9727 32.6087 49.1777 32.3711C49.3861 32.1335 49.6351 31.9495 49.9248 31.8193C50.2145 31.6859 50.5368 31.6191 50.8916 31.6191C51.2497 31.6191 51.5736 31.6859 51.8633 31.8193C52.153 31.9495 52.402 32.1335 52.6104 32.3711C52.8187 32.6087 52.9782 32.8903 53.0889 33.2158C53.1995 33.5413 53.2549 33.8962 53.2549 34.2803V34.4414C53.2549 34.8255 53.1995 35.1803 53.0889 35.5059C52.9782 35.8281 52.8187 36.1081 52.6104 36.3457C52.4053 36.5833 52.1579 36.7689 51.8682 36.9023C51.5785 37.0326 51.2562 37.0977 50.9014 37.0977C50.5433 37.0977 50.2194 37.0326 49.9297 36.9023C49.64 36.7689 49.391 36.5833 49.1826 36.3457C48.9743 36.1081 48.8148 35.8281 48.7041 35.5059C48.5934 35.1803 48.5381 34.8255 48.5381 34.4414ZM49.1191 34.2803V34.4414C49.1191 34.7311 49.1582 35.0062 49.2363 35.2666C49.3145 35.5238 49.4284 35.7533 49.5781 35.9551C49.7279 36.1536 49.9134 36.3099 50.1348 36.4238C50.3561 36.5378 50.6117 36.5947 50.9014 36.5947C51.1878 36.5947 51.4401 36.5378 51.6582 36.4238C51.8796 36.3099 52.0651 36.1536 52.2148 35.9551C52.3646 35.7533 52.4769 35.5238 52.5518 35.2666C52.6299 35.0062 52.6689 34.7311 52.6689 34.4414V34.2803C52.6689 33.9938 52.6299 33.722 52.5518 33.4648C52.4769 33.2077 52.363 32.9782 52.21 32.7764C52.0602 32.5745 51.8747 32.415 51.6533 32.2979C51.432 32.1807 51.1781 32.1221 50.8916 32.1221C50.6051 32.1221 50.3512 32.1807 50.1299 32.2979C49.9118 32.415 49.7262 32.5745 49.5732 32.7764C49.4235 32.9782 49.3096 33.2077 49.2314 33.4648C49.1566 33.722 49.1191 33.9938 49.1191 34.2803ZM58.4141 36.5947C58.6615 36.5947 58.8926 36.5492 59.1074 36.458C59.3255 36.3636 59.5046 36.2253 59.6445 36.043C59.7878 35.8574 59.8691 35.6312 59.8887 35.3643H60.4453C60.429 35.6995 60.3265 35.999 60.1377 36.2627C59.9521 36.5231 59.708 36.7282 59.4053 36.8779C59.1058 37.0244 58.7754 37.0977 58.4141 37.0977C58.0462 37.0977 57.7207 37.0309 57.4375 36.8975C57.1576 36.764 56.9232 36.5785 56.7344 36.3408C56.5456 36.0999 56.4023 35.82 56.3047 35.501C56.2103 35.1787 56.1631 34.832 56.1631 34.4609V34.2559C56.1631 33.8848 56.2103 33.5397 56.3047 33.2207C56.4023 32.8984 56.5456 32.6185 56.7344 32.3809C56.9232 32.14 57.1576 31.9528 57.4375 31.8193C57.7174 31.6859 58.0413 31.6191 58.4092 31.6191C58.7868 31.6191 59.1253 31.6956 59.4248 31.8486C59.7275 32.0016 59.9684 32.2181 60.1475 32.498C60.3298 32.778 60.429 33.11 60.4453 33.4941H59.8887C59.8724 33.2109 59.7975 32.9668 59.6641 32.7617C59.5306 32.5566 59.3548 32.3988 59.1367 32.2881C58.9186 32.1774 58.6761 32.1221 58.4092 32.1221C58.1097 32.1221 57.8542 32.1807 57.6426 32.2979C57.431 32.4118 57.2585 32.5697 57.125 32.7715C56.9948 32.9701 56.8988 33.1979 56.8369 33.4551C56.7751 33.709 56.7441 33.9759 56.7441 34.2559V34.4609C56.7441 34.7441 56.7734 35.0143 56.832 35.2715C56.8939 35.5254 56.9899 35.7516 57.1201 35.9502C57.2536 36.1488 57.4261 36.3066 57.6377 36.4238C57.8525 36.5378 58.1113 36.5947 58.4141 36.5947ZM65.4873 31.7168V37H64.9062V31.7168H65.4873ZM67.4111 31.7168V32.2148H63.0508V31.7168H67.4111ZM69.8506 34.4414V34.2803C69.8506 33.8962 69.9059 33.5413 70.0166 33.2158C70.1273 32.8903 70.2852 32.6087 70.4902 32.3711C70.6986 32.1335 70.9476 31.9495 71.2373 31.8193C71.527 31.6859 71.8493 31.6191 72.2041 31.6191C72.5622 31.6191 72.8861 31.6859 73.1758 31.8193C73.4655 31.9495 73.7145 32.1335 73.9229 32.3711C74.1312 32.6087 74.2907 32.8903 74.4014 33.2158C74.512 33.5413 74.5674 33.8962 74.5674 34.2803V34.4414C74.5674 34.8255 74.512 35.1803 74.4014 35.5059C74.2907 35.8281 74.1312 36.1081 73.9229 36.3457C73.7178 36.5833 73.4704 36.7689 73.1807 36.9023C72.891 37.0326 72.5687 37.0977 72.2139 37.0977C71.8558 37.0977 71.5319 37.0326 71.2422 36.9023C70.9525 36.7689 70.7035 36.5833 70.4951 36.3457C70.2868 36.1081 70.1273 35.8281 70.0166 35.5059C69.9059 35.1803 69.8506 34.8255 69.8506 34.4414ZM70.4316 34.2803V34.4414C70.4316 34.7311 70.4707 35.0062 70.5488 35.2666C70.627 35.5238 70.7409 35.7533 70.8906 35.9551C71.0404 36.1536 71.2259 36.3099 71.4473 36.4238C71.6686 36.5378 71.9242 36.5947 72.2139 36.5947C72.5003 36.5947 72.7526 36.5378 72.9707 36.4238C73.1921 36.3099 73.3776 36.1536 73.5273 35.9551C73.6771 35.7533 73.7894 35.5238 73.8643 35.2666C73.9424 35.0062 73.9814 34.7311 73.9814 34.4414V34.2803C73.9814 33.9938 73.9424 33.722 73.8643 33.4648C73.7894 33.2077 73.6755 32.9782 73.5225 32.7764C73.3727 32.5745 73.1872 32.415 72.9658 32.2979C72.7445 32.1807 72.4906 32.1221 72.2041 32.1221C71.9176 32.1221 71.6637 32.1807 71.4424 32.2979C71.2243 32.415 71.0387 32.5745 70.8857 32.7764C70.736 32.9782 70.6221 33.2077 70.5439 33.4648C70.4691 33.722 70.4316 33.9938 70.4316 34.2803ZM80.1123 34.5635H78.2568L78.2471 34.0752H79.8291C80.1481 34.0752 80.4134 34.041 80.625 33.9727C80.8398 33.901 81.001 33.7952 81.1084 33.6553C81.2191 33.5153 81.2744 33.3428 81.2744 33.1377C81.2744 32.9814 81.2419 32.8447 81.1768 32.7275C81.1149 32.6104 81.0205 32.5143 80.8936 32.4395C80.7699 32.3646 80.6136 32.3092 80.4248 32.2734C80.2393 32.2344 80.0228 32.2148 79.7754 32.2148H78.4229V37H77.8418V31.7168H79.7754C80.0977 31.7168 80.3857 31.7461 80.6396 31.8047C80.8968 31.86 81.1165 31.9447 81.2988 32.0586C81.4811 32.1725 81.6195 32.319 81.7139 32.498C81.8115 32.6738 81.8604 32.8822 81.8604 33.123C81.8604 33.2858 81.8294 33.4388 81.7676 33.582C81.7057 33.722 81.6146 33.849 81.4941 33.9629C81.377 34.0736 81.2321 34.1647 81.0596 34.2363C80.887 34.3047 80.6885 34.347 80.4639 34.3633L80.1123 34.5635ZM80.1123 37H78.0762L78.3008 36.502H80.1123C80.4053 36.502 80.6543 36.4645 80.8594 36.3896C81.0645 36.3148 81.2191 36.2041 81.3232 36.0576C81.4307 35.9111 81.4844 35.7337 81.4844 35.5254C81.4844 35.3301 81.4307 35.1608 81.3232 35.0176C81.2191 34.8743 81.0645 34.7637 80.8594 34.6855C80.6543 34.6042 80.4053 34.5635 80.1123 34.5635H78.7646L78.7744 34.0752H80.5078L80.7568 34.2607C81.0238 34.2835 81.2549 34.3551 81.4502 34.4756C81.6455 34.596 81.7969 34.749 81.9043 34.9346C82.0117 35.1169 82.0654 35.3171 82.0654 35.5352C82.0654 35.776 82.0199 35.9893 81.9287 36.1748C81.8376 36.3571 81.7057 36.5101 81.5332 36.6338C81.3639 36.7542 81.1589 36.8454 80.918 36.9072C80.6771 36.9691 80.4085 37 80.1123 37ZM87.1904 33.6113V34.1143H84.8516V33.6113H87.1904ZM93.8486 34.0801V34.5781H90.7139V34.0801H93.8486ZM90.8652 31.7168V37H90.2842V31.7168H90.8652ZM94.2979 31.7168V37H93.7119V31.7168H94.2979ZM101.083 36.0527V33.3281C101.083 33.0775 101.031 32.861 100.927 32.6787C100.823 32.4964 100.67 32.3564 100.468 32.2588C100.266 32.1611 100.017 32.1123 99.7207 32.1123C99.4473 32.1123 99.2031 32.1611 98.9883 32.2588C98.7767 32.3532 98.609 32.4818 98.4854 32.6445C98.3649 32.804 98.3047 32.9814 98.3047 33.1768L97.7188 33.1719C97.7188 32.9733 97.7676 32.7812 97.8652 32.5957C97.9629 32.4102 98.1012 32.2441 98.2803 32.0977C98.4593 31.9512 98.6725 31.8356 98.9199 31.751C99.1706 31.6631 99.4456 31.6191 99.7451 31.6191C100.123 31.6191 100.455 31.6826 100.741 31.8096C101.031 31.9365 101.257 32.127 101.42 32.3809C101.583 32.6348 101.664 32.9538 101.664 33.3379V35.8916C101.664 36.0739 101.677 36.2627 101.703 36.458C101.732 36.6533 101.773 36.8145 101.825 36.9414V37H101.205C101.166 36.8828 101.135 36.7363 101.112 36.5605C101.093 36.3815 101.083 36.2122 101.083 36.0527ZM101.22 33.9238L101.229 34.373H100.082C99.7826 34.373 99.514 34.4007 99.2764 34.4561C99.042 34.5081 98.8434 34.5863 98.6807 34.6904C98.5179 34.7913 98.3926 34.9134 98.3047 35.0566C98.2201 35.1999 98.1777 35.3626 98.1777 35.5449C98.1777 35.7337 98.2249 35.9062 98.3193 36.0625C98.417 36.2188 98.5537 36.3441 98.7295 36.4385C98.9085 36.5296 99.1201 36.5752 99.3643 36.5752C99.6898 36.5752 99.9762 36.515 100.224 36.3945C100.474 36.2741 100.681 36.1162 100.844 35.9209C101.007 35.7256 101.116 35.5124 101.171 35.2812L101.425 35.6182C101.382 35.7809 101.304 35.9486 101.19 36.1211C101.08 36.2904 100.935 36.4499 100.756 36.5996C100.577 36.7461 100.365 36.8665 100.121 36.9609C99.8802 37.0521 99.6068 37.0977 99.3008 37.0977C98.9557 37.0977 98.6546 37.0326 98.3975 36.9023C98.1436 36.7721 97.945 36.5947 97.8018 36.3701C97.6618 36.1423 97.5918 35.8851 97.5918 35.5986C97.5918 35.3382 97.6471 35.1055 97.7578 34.9004C97.8685 34.6921 98.028 34.5163 98.2363 34.373C98.4479 34.2266 98.7018 34.1159 98.998 34.041C99.2975 33.9629 99.6328 33.9238 100.004 33.9238H101.22ZM107.048 33.6113V34.1143H104.709V33.6113H107.048ZM115.737 36.4873V37H110.151V36.4873H115.737ZM110.283 36.4873V38.7236H109.688V36.4873H110.283ZM116.255 36.4873L116.25 38.7236H115.649V36.4873H116.255ZM115.015 29.8906V30.4082H111.782V29.8906H115.015ZM115.493 29.8906V37H114.897V29.8906H115.493ZM111.567 29.8906H112.168L112.041 32.4541C112.018 32.9131 111.973 33.3379 111.904 33.7285C111.839 34.1191 111.758 34.4772 111.66 34.8027C111.562 35.1283 111.455 35.4196 111.338 35.6768C111.221 35.9307 111.099 36.1504 110.972 36.3359C110.845 36.5182 110.716 36.6663 110.586 36.7803C110.459 36.891 110.337 36.9642 110.22 37H109.849V36.4873H110.161C110.239 36.4059 110.342 36.2725 110.469 36.0869C110.596 35.8981 110.726 35.6458 110.859 35.3301C110.996 35.0111 111.117 34.6156 111.221 34.1436C111.328 33.6683 111.401 33.1051 111.44 32.4541L111.567 29.8906ZM119.017 34.4414V34.2803C119.017 33.8962 119.072 33.5413 119.183 33.2158C119.293 32.8903 119.451 32.6087 119.656 32.3711C119.865 32.1335 120.114 31.9495 120.403 31.8193C120.693 31.6859 121.015 31.6191 121.37 31.6191C121.728 31.6191 122.052 31.6859 122.342 31.8193C122.632 31.9495 122.881 32.1335 123.089 32.3711C123.297 32.6087 123.457 32.8903 123.567 33.2158C123.678 33.5413 123.733 33.8962 123.733 34.2803V34.4414C123.733 34.8255 123.678 35.1803 123.567 35.5059C123.457 35.8281 123.297 36.1081 123.089 36.3457C122.884 36.5833 122.636 36.7689 122.347 36.9023C122.057 37.0326 121.735 37.0977 121.38 37.0977C121.022 37.0977 120.698 37.0326 120.408 36.9023C120.118 36.7689 119.869 36.5833 119.661 36.3457C119.453 36.1081 119.293 35.8281 119.183 35.5059C119.072 35.1803 119.017 34.8255 119.017 34.4414ZM119.598 34.2803V34.4414C119.598 34.7311 119.637 35.0062 119.715 35.2666C119.793 35.5238 119.907 35.7533 120.057 35.9551C120.206 36.1536 120.392 36.3099 120.613 36.4238C120.835 36.5378 121.09 36.5947 121.38 36.5947C121.666 36.5947 121.919 36.5378 122.137 36.4238C122.358 36.3099 122.544 36.1536 122.693 35.9551C122.843 35.7533 122.955 35.5238 123.03 35.2666C123.108 35.0062 123.147 34.7311 123.147 34.4414V34.2803C123.147 33.9938 123.108 33.722 123.03 33.4648C122.955 33.2077 122.841 32.9782 122.688 32.7764C122.539 32.5745 122.353 32.415 122.132 32.2979C121.91 32.1807 121.657 32.1221 121.37 32.1221C121.084 32.1221 120.83 32.1807 120.608 32.2979C120.39 32.415 120.205 32.5745 120.052 32.7764C119.902 32.9782 119.788 33.2077 119.71 33.4648C119.635 33.722 119.598 33.9938 119.598 34.2803ZM130.548 34.0801V34.5781H127.413V34.0801H130.548ZM127.564 31.7168V37H126.983V31.7168H127.564ZM130.997 31.7168V37H130.411V31.7168H130.997ZM136.137 36.4727L137.782 31.7168H138.412L136.176 37.8496C136.13 37.9701 136.072 38.1035 136 38.25C135.932 38.3965 135.84 38.5365 135.727 38.6699C135.616 38.8066 135.476 38.9173 135.307 39.002C135.141 39.0898 134.937 39.1338 134.696 39.1338C134.634 39.1338 134.555 39.1257 134.457 39.1094C134.363 39.0964 134.294 39.0833 134.252 39.0703L134.247 38.5771C134.283 38.5869 134.335 38.5951 134.403 38.6016C134.472 38.6081 134.519 38.6113 134.545 38.6113C134.757 38.6113 134.934 38.5755 135.077 38.5039C135.224 38.4323 135.346 38.3249 135.443 38.1816C135.541 38.0417 135.627 37.8659 135.702 37.6543L136.137 36.4727ZM134.599 31.7168L136.283 36.2529L136.439 36.8633L136.015 37.1025L133.964 31.7168H134.599Z" fill="#181818"/>
<path d="M2.09 21C1.92867 21 1.79667 20.9487 1.694 20.846C1.59133 20.7433 1.54 20.6113 1.54 20.45V6.15C1.54 5.98867 1.59133 5.85667 1.694 5.754C1.79667 5.65133 1.92867 5.6 2.09 5.6H8.25C9.46733 5.6 10.5233 5.79067 11.418 6.172C12.3273 6.53867 13.0313 7.096 13.53 7.844C14.0433 8.592 14.3 9.538 14.3 10.682C14.3 11.8113 14.0433 12.7427 13.53 13.476C13.0313 14.2093 12.3273 14.752 11.418 15.104C10.5233 15.456 9.46733 15.632 8.25 15.632H5.632V20.45C5.632 20.6113 5.57333 20.7433 5.456 20.846C5.35333 20.9487 5.22133 21 5.06 21H2.09ZM5.566 12.596H8.14C8.77067 12.596 9.26933 12.4347 9.636 12.112C10.0173 11.7893 10.208 11.298 10.208 10.638C10.208 10.0807 10.0467 9.61133 9.724 9.23C9.40133 8.84867 8.87333 8.658 8.14 8.658H5.566V12.596ZM21.5772 21.22C20.3452 21.22 19.3039 21.022 18.4532 20.626C17.6172 20.23 16.9719 19.6653 16.5172 18.932C16.0772 18.184 15.8279 17.2967 15.7692 16.27C15.7545 15.9767 15.7472 15.6467 15.7472 15.28C15.7472 14.8987 15.7545 14.5687 15.7692 14.29C15.8279 13.2487 16.0919 12.3613 16.5612 11.628C17.0305 10.8947 17.6832 10.33 18.5192 9.934C19.3699 9.538 20.3892 9.34 21.5772 9.34C22.7799 9.34 23.7992 9.538 24.6352 9.934C25.4859 10.33 26.1459 10.8947 26.6152 11.628C27.0845 12.3613 27.3485 13.2487 27.4072 14.29C27.4219 14.5687 27.4292 14.8987 27.4292 15.28C27.4292 15.6467 27.4219 15.9767 27.4072 16.27C27.3485 17.2967 27.0919 18.184 26.6372 18.932C26.1972 19.6653 25.5519 20.23 24.7012 20.626C23.8652 21.022 22.8239 21.22 21.5772 21.22ZM21.5772 18.536C22.2372 18.536 22.7139 18.338 23.0072 17.942C23.3152 17.546 23.4912 16.952 23.5352 16.16C23.5499 15.94 23.5572 15.6467 23.5572 15.28C23.5572 14.9133 23.5499 14.62 23.5352 14.4C23.4912 13.6227 23.3152 13.036 23.0072 12.64C22.7139 12.2293 22.2372 12.024 21.5772 12.024C20.9319 12.024 20.4552 12.2293 20.1472 12.64C19.8392 13.036 19.6705 13.6227 19.6412 14.4C19.6265 14.62 19.6192 14.9133 19.6192 15.28C19.6192 15.6467 19.6265 15.94 19.6412 16.16C19.6705 16.952 19.8392 17.546 20.1472 17.942C20.4552 18.338 20.9319 18.536 21.5772 18.536ZM35.0929 21.22C33.7583 21.22 32.6729 21.0073 31.8369 20.582C31.0009 20.1567 30.3776 19.504 29.9669 18.624C29.5563 17.744 29.3216 16.6367 29.2629 15.302C29.2483 14.862 29.2409 14.4147 29.2409 13.96C29.2409 13.5053 29.2483 13.0653 29.2629 12.64C29.2923 11.408 29.4243 10.374 29.6589 9.538C29.8936 8.68733 30.2456 7.98333 30.7149 7.426C31.1843 6.854 31.7856 6.37733 32.5189 5.996C33.2669 5.61467 34.1616 5.28467 35.2029 5.006C36.2443 4.71267 37.4469 4.412 38.8109 4.104C38.9576 4.07467 39.0969 4.104 39.2289 4.192C39.3756 4.26533 39.4563 4.38267 39.4709 4.544L39.8449 6.568C39.8743 6.72933 39.8449 6.86867 39.7569 6.986C39.6836 7.10333 39.5736 7.17667 39.4269 7.206C38.2976 7.426 37.3369 7.63133 36.5449 7.822C35.7676 7.998 35.1223 8.21067 34.6089 8.46C34.1103 8.69467 33.7289 9.00267 33.4649 9.384C33.2009 9.75067 33.0176 10.2347 32.9149 10.836C32.8269 11.4227 32.7903 12.1707 32.8049 13.08L32.2769 12.464C32.3943 12.0827 32.6216 11.738 32.9589 11.43C33.3109 11.122 33.7289 10.8727 34.2129 10.682C34.6969 10.4913 35.2176 10.396 35.7749 10.396C36.8603 10.396 37.7696 10.5867 38.5029 10.968C39.2509 11.3347 39.8229 11.8627 40.2189 12.552C40.6149 13.2267 40.8423 14.048 40.9009 15.016C40.9449 15.5733 40.9449 16.1013 40.9009 16.6C40.8423 17.5533 40.5856 18.3747 40.1309 19.064C39.6909 19.7533 39.0456 20.2887 38.1949 20.67C37.3589 21.0367 36.3249 21.22 35.0929 21.22ZM35.0929 18.8C35.7383 18.8 36.2149 18.6093 36.5229 18.228C36.8309 17.832 36.9996 17.26 37.0289 16.512C37.0436 16.336 37.0509 16.1087 37.0509 15.83C37.0509 15.5513 37.0436 15.3093 37.0289 15.104C36.9996 14.3707 36.8309 13.8133 36.5229 13.432C36.2296 13.036 35.7969 12.838 35.2249 12.838C34.5503 12.838 34.0369 13.036 33.6849 13.432C33.3476 13.8133 33.1643 14.3707 33.1349 15.104C33.1203 15.3093 33.1129 15.5513 33.1129 15.83C33.1129 16.1087 33.1203 16.336 33.1349 16.512C33.1643 17.26 33.3329 17.832 33.6409 18.228C33.9636 18.6093 34.4476 18.8 35.0929 18.8ZM48.5186 21.22C47.2866 21.22 46.2453 21.022 45.3946 20.626C44.5586 20.23 43.9133 19.6653 43.4586 18.932C43.0186 18.184 42.7693 17.2967 42.7106 16.27C42.6959 15.9767 42.6886 15.6467 42.6886 15.28C42.6886 14.8987 42.6959 14.5687 42.7106 14.29C42.7693 13.2487 43.0333 12.3613 43.5026 11.628C43.9719 10.8947 44.6246 10.33 45.4606 9.934C46.3113 9.538 47.3306 9.34 48.5186 9.34C49.7213 9.34 50.7406 9.538 51.5766 9.934C52.4273 10.33 53.0873 10.8947 53.5566 11.628C54.0259 12.3613 54.2899 13.2487 54.3486 14.29C54.3633 14.5687 54.3706 14.8987 54.3706 15.28C54.3706 15.6467 54.3633 15.9767 54.3486 16.27C54.2899 17.2967 54.0333 18.184 53.5786 18.932C53.1386 19.6653 52.4933 20.23 51.6426 20.626C50.8066 21.022 49.7653 21.22 48.5186 21.22ZM48.5186 18.536C49.1786 18.536 49.6553 18.338 49.9486 17.942C50.2566 17.546 50.4326 16.952 50.4766 16.16C50.4913 15.94 50.4986 15.6467 50.4986 15.28C50.4986 14.9133 50.4913 14.62 50.4766 14.4C50.4326 13.6227 50.2566 13.036 49.9486 12.64C49.6553 12.2293 49.1786 12.024 48.5186 12.024C47.8733 12.024 47.3966 12.2293 47.0886 12.64C46.7806 13.036 46.6119 13.6227 46.5826 14.4C46.5679 14.62 46.5606 14.9133 46.5606 15.28C46.5606 15.6467 46.5679 15.94 46.5826 16.16C46.6119 16.952 46.7806 17.546 47.0886 17.942C47.3966 18.338 47.8733 18.536 48.5186 18.536ZM59.9883 21C59.8417 21 59.7097 20.9487 59.5923 20.846C59.4897 20.7433 59.4383 20.6113 59.4383 20.45V12.442H56.0943C55.9477 12.442 55.8157 12.3907 55.6983 12.288C55.5957 12.1853 55.5443 12.0533 55.5443 11.892V10.11C55.5443 9.94867 55.5957 9.81667 55.6983 9.714C55.8157 9.61133 55.9477 9.56 56.0943 9.56H66.4343C66.581 9.56 66.7057 9.61133 66.8083 9.714C66.9257 9.81667 66.9843 9.94867 66.9843 10.11V11.892C66.9843 12.0533 66.9257 12.1853 66.8083 12.288C66.7057 12.3907 66.581 12.442 66.4343 12.442H63.0903V20.45C63.0903 20.6113 63.039 20.7433 62.9363 20.846C62.8337 20.9487 62.7017 21 62.5403 21H59.9883Z" fill="#181818"/>
<path d="M69.3791 21C69.2324 21 69.1004 20.9487 68.9831 20.846C68.8804 20.7433 68.8291 20.6113 68.8291 20.45V6.15C68.8291 5.98867 68.8804 5.85667 68.9831 5.754C69.1004 5.65133 69.2324 5.6 69.3791 5.6H71.7551C71.9897 5.6 72.1657 5.666 72.2831 5.798C72.4151 5.91533 72.4957 6.01067 72.5251 6.084L76.3971 13.036L80.2691 6.084C80.3131 6.01067 80.3864 5.91533 80.4891 5.798C80.6064 5.666 80.7897 5.6 81.0391 5.6H83.3931C83.5544 5.6 83.6864 5.65133 83.7891 5.754C83.9064 5.85667 83.9651 5.98867 83.9651 6.15V20.45C83.9651 20.6113 83.9064 20.7433 83.7891 20.846C83.6864 20.9487 83.5544 21 83.3931 21H80.7751C80.6137 21 80.4744 20.9487 80.3571 20.846C80.2544 20.7433 80.2031 20.6113 80.2031 20.45V12.2L77.7171 16.798C77.6584 16.93 77.5704 17.0473 77.4531 17.15C77.3357 17.2527 77.1744 17.304 76.9691 17.304H75.8251C75.6197 17.304 75.4584 17.2527 75.3411 17.15C75.2237 17.0473 75.1284 16.93 75.0551 16.798L72.5691 12.2V20.45C72.5691 20.6113 72.5177 20.7433 72.4151 20.846C72.3124 20.9487 72.1804 21 72.0191 21H69.3791ZM92.1963 21.22C90.9643 21.22 89.923 21.022 89.0723 20.626C88.2363 20.23 87.591 19.6653 87.1363 18.932C86.6963 18.184 86.447 17.2967 86.3883 16.27C86.3737 15.9767 86.3663 15.6467 86.3663 15.28C86.3663 14.8987 86.3737 14.5687 86.3883 14.29C86.447 13.2487 86.711 12.3613 87.1803 11.628C87.6497 10.8947 88.3023 10.33 89.1383 9.934C89.989 9.538 91.0083 9.34 92.1963 9.34C93.399 9.34 94.4183 9.538 95.2543 9.934C96.105 10.33 96.765 10.8947 97.2343 11.628C97.7037 12.3613 97.9677 13.2487 98.0263 14.29C98.041 14.5687 98.0483 14.8987 98.0483 15.28C98.0483 15.6467 98.041 15.9767 98.0263 16.27C97.9677 17.2967 97.711 18.184 97.2563 18.932C96.8163 19.6653 96.171 20.23 95.3203 20.626C94.4843 21.022 93.443 21.22 92.1963 21.22ZM92.1963 18.536C92.8563 18.536 93.333 18.338 93.6263 17.942C93.9343 17.546 94.1103 16.952 94.1543 16.16C94.169 15.94 94.1763 15.6467 94.1763 15.28C94.1763 14.9133 94.169 14.62 94.1543 14.4C94.1103 13.6227 93.9343 13.036 93.6263 12.64C93.333 12.2293 92.8563 12.024 92.1963 12.024C91.551 12.024 91.0743 12.2293 90.7663 12.64C90.4583 13.036 90.2897 13.6227 90.2603 14.4C90.2457 14.62 90.2383 14.9133 90.2383 15.28C90.2383 15.6467 90.2457 15.94 90.2603 16.16C90.2897 16.952 90.4583 17.546 90.7663 17.942C91.0743 18.338 91.551 18.536 92.1963 18.536ZM100.74 21C100.593 21 100.469 20.9487 100.366 20.846C100.263 20.7433 100.212 20.6187 100.212 20.472V10.11C100.212 9.94867 100.263 9.81667 100.366 9.714C100.469 9.61133 100.601 9.56 100.762 9.56H103.358C103.505 9.56 103.629 9.61133 103.732 9.714C103.849 9.81667 103.908 9.94867 103.908 10.11V18.14L102.918 17.656L108.352 9.912C108.425 9.80933 108.513 9.72867 108.616 9.67C108.719 9.59667 108.836 9.56 108.968 9.56H111.322C111.469 9.56 111.593 9.61133 111.696 9.714C111.799 9.81667 111.85 9.94133 111.85 10.088V20.45C111.85 20.6113 111.799 20.7433 111.696 20.846C111.593 20.9487 111.461 21 111.3 21H108.704C108.543 21 108.411 20.9487 108.308 20.846C108.205 20.7433 108.154 20.6113 108.154 20.45V12.662L109.166 12.86L103.688 20.648C103.629 20.7507 103.549 20.8387 103.446 20.912C103.343 20.9707 103.219 21 103.072 21H100.74ZM106.196 8.064C105.287 8.064 104.546 7.92467 103.974 7.646C103.402 7.36733 102.984 6.986 102.72 6.502C102.471 6.018 102.346 5.49 102.346 4.918C102.346 4.80067 102.375 4.70533 102.434 4.632C102.507 4.544 102.617 4.5 102.764 4.5H104.524C104.656 4.5 104.759 4.544 104.832 4.632C104.905 4.70533 104.942 4.80067 104.942 4.918C104.942 5.226 105.023 5.49733 105.184 5.732C105.36 5.96667 105.697 6.084 106.196 6.084C106.709 6.084 107.047 5.96667 107.208 5.732C107.384 5.49733 107.472 5.226 107.472 4.918C107.472 4.80067 107.509 4.70533 107.582 4.632C107.655 4.544 107.758 4.5 107.89 4.5H109.65C109.782 4.5 109.885 4.544 109.958 4.632C110.031 4.70533 110.068 4.80067 110.068 4.918C110.068 5.49 109.936 6.018 109.672 6.502C109.423 6.986 109.012 7.36733 108.44 7.646C107.868 7.92467 107.12 8.064 106.196 8.064ZM128.167 23.596C128.021 23.596 127.889 23.5373 127.771 23.42C127.669 23.3173 127.617 23.1853 127.617 23.024V21H114.791C114.63 21 114.498 20.9487 114.395 20.846C114.293 20.7433 114.241 20.6113 114.241 20.45V10.11C114.241 9.94867 114.293 9.81667 114.395 9.714C114.498 9.61133 114.63 9.56 114.791 9.56H117.255C117.402 9.56 117.527 9.61133 117.629 9.714C117.747 9.81667 117.805 9.94867 117.805 10.11V18.118H120.357V10.11C120.357 9.94867 120.409 9.81667 120.511 9.714C120.614 9.61133 120.746 9.56 120.907 9.56H123.151C123.313 9.56 123.445 9.61133 123.547 9.714C123.65 9.81667 123.701 9.94867 123.701 10.11V18.118H126.253V10.11C126.253 9.94867 126.305 9.81667 126.407 9.714C126.525 9.61133 126.657 9.56 126.803 9.56H129.267C129.429 9.56 129.561 9.61133 129.663 9.714C129.766 9.81667 129.817 9.94867 129.817 10.11V18.118H130.763C130.91 18.118 131.035 18.1693 131.137 18.272C131.255 18.3747 131.313 18.5067 131.313 18.668V23.024C131.313 23.1853 131.255 23.3173 131.137 23.42C131.035 23.5373 130.91 23.596 130.763 23.596H128.167ZM133.611 21C133.464 21 133.34 20.9487 133.237 20.846C133.134 20.7433 133.083 20.6187 133.083 20.472V10.11C133.083 9.94867 133.134 9.81667 133.237 9.714C133.34 9.61133 133.472 9.56 133.633 9.56H136.229C136.376 9.56 136.5 9.61133 136.603 9.714C136.72 9.81667 136.779 9.94867 136.779 10.11V18.14L135.789 17.656L141.223 9.912C141.296 9.80933 141.384 9.72867 141.487 9.67C141.59 9.59667 141.707 9.56 141.839 9.56H144.193C144.34 9.56 144.464 9.61133 144.567 9.714C144.67 9.81667 144.721 9.94133 144.721 10.088V20.45C144.721 20.6113 144.67 20.7433 144.567 20.846C144.464 20.9487 144.332 21 144.171 21H141.575C141.414 21 141.282 20.9487 141.179 20.846C141.076 20.7433 141.025 20.6113 141.025 20.45V12.662L142.037 12.86L136.559 20.648C136.5 20.7507 136.42 20.8387 136.317 20.912C136.214 20.9707 136.09 21 135.943 21H133.611ZM147.662 21C147.501 21 147.369 20.9487 147.266 20.846C147.164 20.7433 147.112 20.6113 147.112 20.45V10.11C147.112 9.94867 147.164 9.81667 147.266 9.714C147.369 9.61133 147.501 9.56 147.662 9.56H150.192C150.354 9.56 150.486 9.61133 150.588 9.714C150.691 9.81667 150.742 9.94867 150.742 10.11V13.762H151.93L154.328 9.912C154.372 9.83867 154.446 9.76533 154.548 9.692C154.651 9.604 154.783 9.56 154.944 9.56H157.76C157.892 9.56 158.002 9.604 158.09 9.692C158.193 9.76533 158.244 9.868 158.244 10C158.244 10.044 158.23 10.0953 158.2 10.154C158.186 10.2127 158.164 10.264 158.134 10.308L155.12 15.104L158.64 20.274C158.699 20.362 158.728 20.4573 158.728 20.56C158.728 20.692 158.684 20.802 158.596 20.89C158.508 20.9633 158.391 21 158.244 21H155.142C154.981 21 154.849 20.9707 154.746 20.912C154.658 20.8387 154.578 20.7507 154.504 20.648L151.886 16.644H150.742V20.45C150.742 20.6113 150.691 20.7433 150.588 20.846C150.486 20.9487 150.354 21 150.192 21H147.662Z" fill="#CE00BA"/>
<path d="M165 18C165 18 172.851 18 175.992 18C179.133 18 180.075 20.2545 177.562 22" stroke="#CE00BA" stroke-linecap="round" stroke-linejoin="round"/>
<path d="M165 12C165 12 172.851 12 175.992 12C179.133 12 180.075 9.74545 177.562 8" stroke="#CE00BA" stroke-linecap="round" stroke-linejoin="round"/>
<path d="M166 15L177 15" stroke="#181818" stroke-linecap="round" stroke-linejoin="round"/>
</svg>
