<svg width="44" height="44" viewBox="0 0 44 44" fill="none" xmlns="http://www.w3.org/2000/svg">
<path d="M22 44C34.1503 44 44 34.1503 44 22C44 9.84974 34.1503 0 22 0C9.84974 0 0 9.84974 0 22C0 34.1503 9.84974 44 22 44Z" fill="url(#paint0_linear_9_1482)"/>
<path fill-rule="evenodd" clip-rule="evenodd" d="M9.95844 21.7677C16.3719 18.9734 20.6485 17.1313 22.7884 16.2413C28.898 13.7001 30.1675 13.2586 30.995 13.2441C31.177 13.2408 31.5839 13.2859 31.8475 13.4998C32.07 13.6804 32.1313 13.9244 32.1606 14.0956C32.1899 14.2668 32.2264 14.6569 32.1974 14.9617C31.8663 18.4404 30.4337 26.8823 29.7049 30.7785C29.3965 32.4272 28.7892 32.98 28.2014 33.0341C26.9238 33.1516 25.9537 32.1897 24.7163 31.3786C22.78 30.1094 21.6861 29.3192 19.8066 28.0807C17.6345 26.6493 19.0426 25.8626 20.2804 24.5769C20.6044 24.2404 26.2335 19.1204 26.3424 18.6559C26.356 18.5978 26.3687 18.3813 26.24 18.2669C26.1114 18.1526 25.9215 18.1917 25.7845 18.2228C25.5903 18.2669 22.4971 20.3114 16.5048 24.3564C15.6268 24.9593 14.8315 25.253 14.119 25.2376C13.3335 25.2207 11.8225 24.7935 10.6992 24.4283C9.32144 23.9805 8.22643 23.7437 8.32178 22.9831C8.37145 22.587 8.917 22.1818 9.95844 21.7677Z" fill="white"/>
<defs>
<linearGradient id="paint0_linear_9_1482" x1="22" y1="0" x2="22" y2="43.6737" gradientUnits="userSpaceOnUse">
<stop stop-color="#2AABEE"/>
<stop offset="1" stop-color="#229ED9"/>
</linearGradient>
</defs>
</svg>
