<svg width="186" height="43" viewBox="0 0 186 43" fill="none" xmlns="http://www.w3.org/2000/svg">
<path d="M49.3203 37.1045H47.2939V36.5918H49.3203C49.7435 36.5918 50.0869 36.5234 50.3506 36.3867C50.6175 36.2467 50.8112 36.0579 50.9316 35.8203C51.0553 35.5827 51.1172 35.3158 51.1172 35.0195C51.1172 34.7298 51.0553 34.4629 50.9316 34.2188C50.8112 33.9746 50.6175 33.7793 50.3506 33.6328C50.0869 33.4831 49.7435 33.4082 49.3203 33.4082H47.5039V40H46.9033V32.8906H49.3203C49.8411 32.8906 50.279 32.9801 50.6338 33.1592C50.9919 33.3382 51.262 33.5872 51.4443 33.9062C51.6266 34.2253 51.7178 34.5931 51.7178 35.0098C51.7178 35.446 51.6266 35.8219 51.4443 36.1377C51.262 36.4502 50.9935 36.6895 50.6387 36.8555C50.2839 37.0215 49.8444 37.1045 49.3203 37.1045ZM54.5381 37.4414V37.2803C54.5381 36.8962 54.5934 36.5413 54.7041 36.2158C54.8148 35.8903 54.9727 35.6087 55.1777 35.3711C55.3861 35.1335 55.6351 34.9495 55.9248 34.8193C56.2145 34.6859 56.5368 34.6191 56.8916 34.6191C57.2497 34.6191 57.5736 34.6859 57.8633 34.8193C58.153 34.9495 58.402 35.1335 58.6104 35.3711C58.8187 35.6087 58.9782 35.8903 59.0889 36.2158C59.1995 36.5413 59.2549 36.8962 59.2549 37.2803V37.4414C59.2549 37.8255 59.1995 38.1803 59.0889 38.5059C58.9782 38.8281 58.8187 39.1081 58.6104 39.3457C58.4053 39.5833 58.1579 39.7689 57.8682 39.9023C57.5785 40.0326 57.2562 40.0977 56.9014 40.0977C56.5433 40.0977 56.2194 40.0326 55.9297 39.9023C55.64 39.7689 55.391 39.5833 55.1826 39.3457C54.9743 39.1081 54.8148 38.8281 54.7041 38.5059C54.5934 38.1803 54.5381 37.8255 54.5381 37.4414ZM55.1191 37.2803V37.4414C55.1191 37.7311 55.1582 38.0062 55.2363 38.2666C55.3145 38.5238 55.4284 38.7533 55.5781 38.9551C55.7279 39.1536 55.9134 39.3099 56.1348 39.4238C56.3561 39.5378 56.6117 39.5947 56.9014 39.5947C57.1878 39.5947 57.4401 39.5378 57.6582 39.4238C57.8796 39.3099 58.0651 39.1536 58.2148 38.9551C58.3646 38.7533 58.4769 38.5238 58.5518 38.2666C58.6299 38.0062 58.6689 37.7311 58.6689 37.4414V37.2803C58.6689 36.9938 58.6299 36.722 58.5518 36.4648C58.4769 36.2077 58.363 35.9782 58.21 35.7764C58.0602 35.5745 57.8747 35.415 57.6533 35.2979C57.432 35.1807 57.1781 35.1221 56.8916 35.1221C56.6051 35.1221 56.3512 35.1807 56.1299 35.2979C55.9118 35.415 55.7262 35.5745 55.5732 35.7764C55.4235 35.9782 55.3096 36.2077 55.2314 36.4648C55.1566 36.722 55.1191 36.9938 55.1191 37.2803ZM64.4141 39.5947C64.6615 39.5947 64.8926 39.5492 65.1074 39.458C65.3255 39.3636 65.5046 39.2253 65.6445 39.043C65.7878 38.8574 65.8691 38.6312 65.8887 38.3643H66.4453C66.429 38.6995 66.3265 38.999 66.1377 39.2627C65.9521 39.5231 65.708 39.7282 65.4053 39.8779C65.1058 40.0244 64.7754 40.0977 64.4141 40.0977C64.0462 40.0977 63.7207 40.0309 63.4375 39.8975C63.1576 39.764 62.9232 39.5785 62.7344 39.3408C62.5456 39.0999 62.4023 38.82 62.3047 38.501C62.2103 38.1787 62.1631 37.832 62.1631 37.4609V37.2559C62.1631 36.8848 62.2103 36.5397 62.3047 36.2207C62.4023 35.8984 62.5456 35.6185 62.7344 35.3809C62.9232 35.14 63.1576 34.9528 63.4375 34.8193C63.7174 34.6859 64.0413 34.6191 64.4092 34.6191C64.7868 34.6191 65.1253 34.6956 65.4248 34.8486C65.7275 35.0016 65.9684 35.2181 66.1475 35.498C66.3298 35.778 66.429 36.11 66.4453 36.4941H65.8887C65.8724 36.2109 65.7975 35.9668 65.6641 35.7617C65.5306 35.5566 65.3548 35.3988 65.1367 35.2881C64.9186 35.1774 64.6761 35.1221 64.4092 35.1221C64.1097 35.1221 63.8542 35.1807 63.6426 35.2979C63.431 35.4118 63.2585 35.5697 63.125 35.7715C62.9948 35.9701 62.8988 36.1979 62.8369 36.4551C62.7751 36.709 62.7441 36.9759 62.7441 37.2559V37.4609C62.7441 37.7441 62.7734 38.0143 62.832 38.2715C62.8939 38.5254 62.9899 38.7516 63.1201 38.9502C63.2536 39.1488 63.4261 39.3066 63.6377 39.4238C63.8525 39.5378 64.1113 39.5947 64.4141 39.5947ZM71.4873 34.7168V40H70.9062V34.7168H71.4873ZM73.4111 34.7168V35.2148H69.0508V34.7168H73.4111ZM75.8506 37.4414V37.2803C75.8506 36.8962 75.9059 36.5413 76.0166 36.2158C76.1273 35.8903 76.2852 35.6087 76.4902 35.3711C76.6986 35.1335 76.9476 34.9495 77.2373 34.8193C77.527 34.6859 77.8493 34.6191 78.2041 34.6191C78.5622 34.6191 78.8861 34.6859 79.1758 34.8193C79.4655 34.9495 79.7145 35.1335 79.9229 35.3711C80.1312 35.6087 80.2907 35.8903 80.4014 36.2158C80.512 36.5413 80.5674 36.8962 80.5674 37.2803V37.4414C80.5674 37.8255 80.512 38.1803 80.4014 38.5059C80.2907 38.8281 80.1312 39.1081 79.9229 39.3457C79.7178 39.5833 79.4704 39.7689 79.1807 39.9023C78.891 40.0326 78.5687 40.0977 78.2139 40.0977C77.8558 40.0977 77.5319 40.0326 77.2422 39.9023C76.9525 39.7689 76.7035 39.5833 76.4951 39.3457C76.2868 39.1081 76.1273 38.8281 76.0166 38.5059C75.9059 38.1803 75.8506 37.8255 75.8506 37.4414ZM76.4316 37.2803V37.4414C76.4316 37.7311 76.4707 38.0062 76.5488 38.2666C76.627 38.5238 76.7409 38.7533 76.8906 38.9551C77.0404 39.1536 77.2259 39.3099 77.4473 39.4238C77.6686 39.5378 77.9242 39.5947 78.2139 39.5947C78.5003 39.5947 78.7526 39.5378 78.9707 39.4238C79.1921 39.3099 79.3776 39.1536 79.5273 38.9551C79.6771 38.7533 79.7894 38.5238 79.8643 38.2666C79.9424 38.0062 79.9814 37.7311 79.9814 37.4414V37.2803C79.9814 36.9938 79.9424 36.722 79.8643 36.4648C79.7894 36.2077 79.6755 35.9782 79.5225 35.7764C79.3727 35.5745 79.1872 35.415 78.9658 35.2979C78.7445 35.1807 78.4906 35.1221 78.2041 35.1221C77.9176 35.1221 77.6637 35.1807 77.4424 35.2979C77.2243 35.415 77.0387 35.5745 76.8857 35.7764C76.736 35.9782 76.6221 36.2077 76.5439 36.4648C76.4691 36.722 76.4316 36.9938 76.4316 37.2803ZM86.1123 37.5635H84.2568L84.2471 37.0752H85.8291C86.1481 37.0752 86.4134 37.041 86.625 36.9727C86.8398 36.901 87.001 36.7952 87.1084 36.6553C87.2191 36.5153 87.2744 36.3428 87.2744 36.1377C87.2744 35.9814 87.2419 35.8447 87.1768 35.7275C87.1149 35.6104 87.0205 35.5143 86.8936 35.4395C86.7699 35.3646 86.6136 35.3092 86.4248 35.2734C86.2393 35.2344 86.0228 35.2148 85.7754 35.2148H84.4229V40H83.8418V34.7168H85.7754C86.0977 34.7168 86.3857 34.7461 86.6396 34.8047C86.8968 34.86 87.1165 34.9447 87.2988 35.0586C87.4811 35.1725 87.6195 35.319 87.7139 35.498C87.8115 35.6738 87.8604 35.8822 87.8604 36.123C87.8604 36.2858 87.8294 36.4388 87.7676 36.582C87.7057 36.722 87.6146 36.849 87.4941 36.9629C87.377 37.0736 87.2321 37.1647 87.0596 37.2363C86.887 37.3047 86.6885 37.347 86.4639 37.3633L86.1123 37.5635ZM86.1123 40H84.0762L84.3008 39.502H86.1123C86.4053 39.502 86.6543 39.4645 86.8594 39.3896C87.0645 39.3148 87.2191 39.2041 87.3232 39.0576C87.4307 38.9111 87.4844 38.7337 87.4844 38.5254C87.4844 38.3301 87.4307 38.1608 87.3232 38.0176C87.2191 37.8743 87.0645 37.7637 86.8594 37.6855C86.6543 37.6042 86.4053 37.5635 86.1123 37.5635H84.7646L84.7744 37.0752H86.5078L86.7568 37.2607C87.0238 37.2835 87.2549 37.3551 87.4502 37.4756C87.6455 37.596 87.7969 37.749 87.9043 37.9346C88.0117 38.1169 88.0654 38.3171 88.0654 38.5352C88.0654 38.776 88.0199 38.9893 87.9287 39.1748C87.8376 39.3571 87.7057 39.5101 87.5332 39.6338C87.3639 39.7542 87.1589 39.8454 86.918 39.9072C86.6771 39.9691 86.4085 40 86.1123 40ZM93.1904 36.6113V37.1143H90.8516V36.6113H93.1904ZM99.8486 37.0801V37.5781H96.7139V37.0801H99.8486ZM96.8652 34.7168V40H96.2842V34.7168H96.8652ZM100.298 34.7168V40H99.7119V34.7168H100.298ZM107.083 39.0527V36.3281C107.083 36.0775 107.031 35.861 106.927 35.6787C106.823 35.4964 106.67 35.3564 106.468 35.2588C106.266 35.1611 106.017 35.1123 105.721 35.1123C105.447 35.1123 105.203 35.1611 104.988 35.2588C104.777 35.3532 104.609 35.4818 104.485 35.6445C104.365 35.804 104.305 35.9814 104.305 36.1768L103.719 36.1719C103.719 35.9733 103.768 35.7812 103.865 35.5957C103.963 35.4102 104.101 35.2441 104.28 35.0977C104.459 34.9512 104.673 34.8356 104.92 34.751C105.171 34.6631 105.446 34.6191 105.745 34.6191C106.123 34.6191 106.455 34.6826 106.741 34.8096C107.031 34.9365 107.257 35.127 107.42 35.3809C107.583 35.6348 107.664 35.9538 107.664 36.3379V38.8916C107.664 39.0739 107.677 39.2627 107.703 39.458C107.732 39.6533 107.773 39.8145 107.825 39.9414V40H107.205C107.166 39.8828 107.135 39.7363 107.112 39.5605C107.093 39.3815 107.083 39.2122 107.083 39.0527ZM107.22 36.9238L107.229 37.373H106.082C105.783 37.373 105.514 37.4007 105.276 37.4561C105.042 37.5081 104.843 37.5863 104.681 37.6904C104.518 37.7913 104.393 37.9134 104.305 38.0566C104.22 38.1999 104.178 38.3626 104.178 38.5449C104.178 38.7337 104.225 38.9062 104.319 39.0625C104.417 39.2188 104.554 39.3441 104.729 39.4385C104.909 39.5296 105.12 39.5752 105.364 39.5752C105.69 39.5752 105.976 39.515 106.224 39.3945C106.474 39.2741 106.681 39.1162 106.844 38.9209C107.007 38.7256 107.116 38.5124 107.171 38.2812L107.425 38.6182C107.382 38.7809 107.304 38.9486 107.19 39.1211C107.08 39.2904 106.935 39.4499 106.756 39.5996C106.577 39.7461 106.365 39.8665 106.121 39.9609C105.88 40.0521 105.607 40.0977 105.301 40.0977C104.956 40.0977 104.655 40.0326 104.397 39.9023C104.144 39.7721 103.945 39.5947 103.802 39.3701C103.662 39.1423 103.592 38.8851 103.592 38.5986C103.592 38.3382 103.647 38.1055 103.758 37.9004C103.868 37.6921 104.028 37.5163 104.236 37.373C104.448 37.2266 104.702 37.1159 104.998 37.041C105.298 36.9629 105.633 36.9238 106.004 36.9238H107.22ZM113.048 36.6113V37.1143H110.709V36.6113H113.048ZM121.737 39.4873V40H116.151V39.4873H121.737ZM116.283 39.4873V41.7236H115.688V39.4873H116.283ZM122.255 39.4873L122.25 41.7236H121.649V39.4873H122.255ZM121.015 32.8906V33.4082H117.782V32.8906H121.015ZM121.493 32.8906V40H120.897V32.8906H121.493ZM117.567 32.8906H118.168L118.041 35.4541C118.018 35.9131 117.973 36.3379 117.904 36.7285C117.839 37.1191 117.758 37.4772 117.66 37.8027C117.562 38.1283 117.455 38.4196 117.338 38.6768C117.221 38.9307 117.099 39.1504 116.972 39.3359C116.845 39.5182 116.716 39.6663 116.586 39.7803C116.459 39.891 116.337 39.9642 116.22 40H115.849V39.4873H116.161C116.239 39.4059 116.342 39.2725 116.469 39.0869C116.596 38.8981 116.726 38.6458 116.859 38.3301C116.996 38.0111 117.117 37.6156 117.221 37.1436C117.328 36.6683 117.401 36.1051 117.44 35.4541L117.567 32.8906ZM125.017 37.4414V37.2803C125.017 36.8962 125.072 36.5413 125.183 36.2158C125.293 35.8903 125.451 35.6087 125.656 35.3711C125.865 35.1335 126.114 34.9495 126.403 34.8193C126.693 34.6859 127.015 34.6191 127.37 34.6191C127.728 34.6191 128.052 34.6859 128.342 34.8193C128.632 34.9495 128.881 35.1335 129.089 35.3711C129.297 35.6087 129.457 35.8903 129.567 36.2158C129.678 36.5413 129.733 36.8962 129.733 37.2803V37.4414C129.733 37.8255 129.678 38.1803 129.567 38.5059C129.457 38.8281 129.297 39.1081 129.089 39.3457C128.884 39.5833 128.636 39.7689 128.347 39.9023C128.057 40.0326 127.735 40.0977 127.38 40.0977C127.022 40.0977 126.698 40.0326 126.408 39.9023C126.118 39.7689 125.869 39.5833 125.661 39.3457C125.453 39.1081 125.293 38.8281 125.183 38.5059C125.072 38.1803 125.017 37.8255 125.017 37.4414ZM125.598 37.2803V37.4414C125.598 37.7311 125.637 38.0062 125.715 38.2666C125.793 38.5238 125.907 38.7533 126.057 38.9551C126.206 39.1536 126.392 39.3099 126.613 39.4238C126.835 39.5378 127.09 39.5947 127.38 39.5947C127.666 39.5947 127.919 39.5378 128.137 39.4238C128.358 39.3099 128.544 39.1536 128.693 38.9551C128.843 38.7533 128.955 38.5238 129.03 38.2666C129.108 38.0062 129.147 37.7311 129.147 37.4414V37.2803C129.147 36.9938 129.108 36.722 129.03 36.4648C128.955 36.2077 128.841 35.9782 128.688 35.7764C128.539 35.5745 128.353 35.415 128.132 35.2979C127.91 35.1807 127.657 35.1221 127.37 35.1221C127.084 35.1221 126.83 35.1807 126.608 35.2979C126.39 35.415 126.205 35.5745 126.052 35.7764C125.902 35.9782 125.788 36.2077 125.71 36.4648C125.635 36.722 125.598 36.9938 125.598 37.2803ZM136.548 37.0801V37.5781H133.413V37.0801H136.548ZM133.564 34.7168V40H132.983V34.7168H133.564ZM136.997 34.7168V40H136.411V34.7168H136.997ZM142.137 39.4727L143.782 34.7168H144.412L142.176 40.8496C142.13 40.9701 142.072 41.1035 142 41.25C141.932 41.3965 141.84 41.5365 141.727 41.6699C141.616 41.8066 141.476 41.9173 141.307 42.002C141.141 42.0898 140.937 42.1338 140.696 42.1338C140.634 42.1338 140.555 42.1257 140.457 42.1094C140.363 42.0964 140.294 42.0833 140.252 42.0703L140.247 41.5771C140.283 41.5869 140.335 41.5951 140.403 41.6016C140.472 41.6081 140.519 41.6113 140.545 41.6113C140.757 41.6113 140.934 41.5755 141.077 41.5039C141.224 41.4323 141.346 41.3249 141.443 41.1816C141.541 41.0417 141.627 40.8659 141.702 40.6543L142.137 39.4727ZM140.599 34.7168L142.283 39.2529L142.439 39.8633L142.015 40.1025L139.964 34.7168H140.599Z" fill="white"/>
<g filter="url(#filter0_d_9_1501)">
<path d="M8.09 24C7.92867 24 7.79667 23.9487 7.694 23.846C7.59133 23.7433 7.54 23.6113 7.54 23.45V9.15C7.54 8.98867 7.59133 8.85667 7.694 8.754C7.79667 8.65133 7.92867 8.6 8.09 8.6H14.25C15.4673 8.6 16.5233 8.79067 17.418 9.172C18.3273 9.53867 19.0313 10.096 19.53 10.844C20.0433 11.592 20.3 12.538 20.3 13.682C20.3 14.8113 20.0433 15.7427 19.53 16.476C19.0313 17.2093 18.3273 17.752 17.418 18.104C16.5233 18.456 15.4673 18.632 14.25 18.632H11.632V23.45C11.632 23.6113 11.5733 23.7433 11.456 23.846C11.3533 23.9487 11.2213 24 11.06 24H8.09ZM11.566 15.596H14.14C14.7707 15.596 15.2693 15.4347 15.636 15.112C16.0173 14.7893 16.208 14.298 16.208 13.638C16.208 13.0807 16.0467 12.6113 15.724 12.23C15.4013 11.8487 14.8733 11.658 14.14 11.658H11.566V15.596ZM27.5772 24.22C26.3452 24.22 25.3039 24.022 24.4532 23.626C23.6172 23.23 22.9719 22.6653 22.5172 21.932C22.0772 21.184 21.8279 20.2967 21.7692 19.27C21.7545 18.9767 21.7472 18.6467 21.7472 18.28C21.7472 17.8987 21.7545 17.5687 21.7692 17.29C21.8279 16.2487 22.0919 15.3613 22.5612 14.628C23.0305 13.8947 23.6832 13.33 24.5192 12.934C25.3699 12.538 26.3892 12.34 27.5772 12.34C28.7799 12.34 29.7992 12.538 30.6352 12.934C31.4859 13.33 32.1459 13.8947 32.6152 14.628C33.0845 15.3613 33.3485 16.2487 33.4072 17.29C33.4219 17.5687 33.4292 17.8987 33.4292 18.28C33.4292 18.6467 33.4219 18.9767 33.4072 19.27C33.3485 20.2967 33.0919 21.184 32.6372 21.932C32.1972 22.6653 31.5519 23.23 30.7012 23.626C29.8652 24.022 28.8239 24.22 27.5772 24.22ZM27.5772 21.536C28.2372 21.536 28.7139 21.338 29.0072 20.942C29.3152 20.546 29.4912 19.952 29.5352 19.16C29.5499 18.94 29.5572 18.6467 29.5572 18.28C29.5572 17.9133 29.5499 17.62 29.5352 17.4C29.4912 16.6227 29.3152 16.036 29.0072 15.64C28.7139 15.2293 28.2372 15.024 27.5772 15.024C26.9319 15.024 26.4552 15.2293 26.1472 15.64C25.8392 16.036 25.6705 16.6227 25.6412 17.4C25.6265 17.62 25.6192 17.9133 25.6192 18.28C25.6192 18.6467 25.6265 18.94 25.6412 19.16C25.6705 19.952 25.8392 20.546 26.1472 20.942C26.4552 21.338 26.9319 21.536 27.5772 21.536ZM41.0929 24.22C39.7583 24.22 38.6729 24.0073 37.8369 23.582C37.0009 23.1567 36.3776 22.504 35.9669 21.624C35.5563 20.744 35.3216 19.6367 35.2629 18.302C35.2483 17.862 35.2409 17.4147 35.2409 16.96C35.2409 16.5053 35.2483 16.0653 35.2629 15.64C35.2923 14.408 35.4243 13.374 35.6589 12.538C35.8936 11.6873 36.2456 10.9833 36.7149 10.426C37.1843 9.854 37.7856 9.37733 38.5189 8.996C39.2669 8.61467 40.1616 8.28467 41.2029 8.006C42.2443 7.71267 43.4469 7.412 44.8109 7.104C44.9576 7.07467 45.0969 7.104 45.2289 7.192C45.3756 7.26533 45.4563 7.38267 45.4709 7.544L45.8449 9.568C45.8743 9.72933 45.8449 9.86867 45.7569 9.986C45.6836 10.1033 45.5736 10.1767 45.4269 10.206C44.2976 10.426 43.3369 10.6313 42.5449 10.822C41.7676 10.998 41.1223 11.2107 40.6089 11.46C40.1103 11.6947 39.7289 12.0027 39.4649 12.384C39.2009 12.7507 39.0176 13.2347 38.9149 13.836C38.8269 14.4227 38.7903 15.1707 38.8049 16.08L38.2769 15.464C38.3943 15.0827 38.6216 14.738 38.9589 14.43C39.3109 14.122 39.7289 13.8727 40.2129 13.682C40.6969 13.4913 41.2176 13.396 41.7749 13.396C42.8603 13.396 43.7696 13.5867 44.5029 13.968C45.2509 14.3347 45.8229 14.8627 46.2189 15.552C46.6149 16.2267 46.8423 17.048 46.9009 18.016C46.9449 18.5733 46.9449 19.1013 46.9009 19.6C46.8423 20.5533 46.5856 21.3747 46.1309 22.064C45.6909 22.7533 45.0456 23.2887 44.1949 23.67C43.3589 24.0367 42.3249 24.22 41.0929 24.22ZM41.0929 21.8C41.7383 21.8 42.2149 21.6093 42.5229 21.228C42.8309 20.832 42.9996 20.26 43.0289 19.512C43.0436 19.336 43.0509 19.1087 43.0509 18.83C43.0509 18.5513 43.0436 18.3093 43.0289 18.104C42.9996 17.3707 42.8309 16.8133 42.5229 16.432C42.2296 16.036 41.7969 15.838 41.2249 15.838C40.5503 15.838 40.0369 16.036 39.6849 16.432C39.3476 16.8133 39.1643 17.3707 39.1349 18.104C39.1203 18.3093 39.1129 18.5513 39.1129 18.83C39.1129 19.1087 39.1203 19.336 39.1349 19.512C39.1643 20.26 39.3329 20.832 39.6409 21.228C39.9636 21.6093 40.4476 21.8 41.0929 21.8ZM54.5186 24.22C53.2866 24.22 52.2453 24.022 51.3946 23.626C50.5586 23.23 49.9133 22.6653 49.4586 21.932C49.0186 21.184 48.7693 20.2967 48.7106 19.27C48.6959 18.9767 48.6886 18.6467 48.6886 18.28C48.6886 17.8987 48.6959 17.5687 48.7106 17.29C48.7693 16.2487 49.0333 15.3613 49.5026 14.628C49.9719 13.8947 50.6246 13.33 51.4606 12.934C52.3113 12.538 53.3306 12.34 54.5186 12.34C55.7213 12.34 56.7406 12.538 57.5766 12.934C58.4273 13.33 59.0873 13.8947 59.5566 14.628C60.0259 15.3613 60.2899 16.2487 60.3486 17.29C60.3633 17.5687 60.3706 17.8987 60.3706 18.28C60.3706 18.6467 60.3633 18.9767 60.3486 19.27C60.2899 20.2967 60.0333 21.184 59.5786 21.932C59.1386 22.6653 58.4933 23.23 57.6426 23.626C56.8066 24.022 55.7653 24.22 54.5186 24.22ZM54.5186 21.536C55.1786 21.536 55.6553 21.338 55.9486 20.942C56.2566 20.546 56.4326 19.952 56.4766 19.16C56.4913 18.94 56.4986 18.6467 56.4986 18.28C56.4986 17.9133 56.4913 17.62 56.4766 17.4C56.4326 16.6227 56.2566 16.036 55.9486 15.64C55.6553 15.2293 55.1786 15.024 54.5186 15.024C53.8733 15.024 53.3966 15.2293 53.0886 15.64C52.7806 16.036 52.6119 16.6227 52.5826 17.4C52.5679 17.62 52.5606 17.9133 52.5606 18.28C52.5606 18.6467 52.5679 18.94 52.5826 19.16C52.6119 19.952 52.7806 20.546 53.0886 20.942C53.3966 21.338 53.8733 21.536 54.5186 21.536ZM65.9883 24C65.8417 24 65.7097 23.9487 65.5923 23.846C65.4897 23.7433 65.4383 23.6113 65.4383 23.45V15.442H62.0943C61.9477 15.442 61.8157 15.3907 61.6983 15.288C61.5957 15.1853 61.5443 15.0533 61.5443 14.892V13.11C61.5443 12.9487 61.5957 12.8167 61.6983 12.714C61.8157 12.6113 61.9477 12.56 62.0943 12.56H72.4343C72.581 12.56 72.7057 12.6113 72.8083 12.714C72.9257 12.8167 72.9843 12.9487 72.9843 13.11V14.892C72.9843 15.0533 72.9257 15.1853 72.8083 15.288C72.7057 15.3907 72.581 15.442 72.4343 15.442H69.0903V23.45C69.0903 23.6113 69.039 23.7433 68.9363 23.846C68.8337 23.9487 68.7017 24 68.5403 24H65.9883Z" fill="white"/>
<path d="M75.3791 24C75.2324 24 75.1004 23.9487 74.9831 23.846C74.8804 23.7433 74.8291 23.6113 74.8291 23.45V9.15C74.8291 8.98867 74.8804 8.85667 74.9831 8.754C75.1004 8.65133 75.2324 8.6 75.3791 8.6H77.7551C77.9897 8.6 78.1657 8.666 78.2831 8.798C78.4151 8.91533 78.4957 9.01067 78.5251 9.084L82.3971 16.036L86.2691 9.084C86.3131 9.01067 86.3864 8.91533 86.4891 8.798C86.6064 8.666 86.7897 8.6 87.0391 8.6H89.3931C89.5544 8.6 89.6864 8.65133 89.7891 8.754C89.9064 8.85667 89.9651 8.98867 89.9651 9.15V23.45C89.9651 23.6113 89.9064 23.7433 89.7891 23.846C89.6864 23.9487 89.5544 24 89.3931 24H86.7751C86.6137 24 86.4744 23.9487 86.3571 23.846C86.2544 23.7433 86.2031 23.6113 86.2031 23.45V15.2L83.7171 19.798C83.6584 19.93 83.5704 20.0473 83.4531 20.15C83.3357 20.2527 83.1744 20.304 82.9691 20.304H81.8251C81.6197 20.304 81.4584 20.2527 81.3411 20.15C81.2237 20.0473 81.1284 19.93 81.0551 19.798L78.5691 15.2V23.45C78.5691 23.6113 78.5177 23.7433 78.4151 23.846C78.3124 23.9487 78.1804 24 78.0191 24H75.3791ZM98.1963 24.22C96.9643 24.22 95.923 24.022 95.0723 23.626C94.2363 23.23 93.591 22.6653 93.1363 21.932C92.6963 21.184 92.447 20.2967 92.3883 19.27C92.3737 18.9767 92.3663 18.6467 92.3663 18.28C92.3663 17.8987 92.3737 17.5687 92.3883 17.29C92.447 16.2487 92.711 15.3613 93.1803 14.628C93.6497 13.8947 94.3023 13.33 95.1383 12.934C95.989 12.538 97.0083 12.34 98.1963 12.34C99.399 12.34 100.418 12.538 101.254 12.934C102.105 13.33 102.765 13.8947 103.234 14.628C103.704 15.3613 103.968 16.2487 104.026 17.29C104.041 17.5687 104.048 17.8987 104.048 18.28C104.048 18.6467 104.041 18.9767 104.026 19.27C103.968 20.2967 103.711 21.184 103.256 21.932C102.816 22.6653 102.171 23.23 101.32 23.626C100.484 24.022 99.443 24.22 98.1963 24.22ZM98.1963 21.536C98.8563 21.536 99.333 21.338 99.6263 20.942C99.9343 20.546 100.11 19.952 100.154 19.16C100.169 18.94 100.176 18.6467 100.176 18.28C100.176 17.9133 100.169 17.62 100.154 17.4C100.11 16.6227 99.9343 16.036 99.6263 15.64C99.333 15.2293 98.8563 15.024 98.1963 15.024C97.551 15.024 97.0743 15.2293 96.7663 15.64C96.4583 16.036 96.2897 16.6227 96.2603 17.4C96.2457 17.62 96.2383 17.9133 96.2383 18.28C96.2383 18.6467 96.2457 18.94 96.2603 19.16C96.2897 19.952 96.4583 20.546 96.7663 20.942C97.0743 21.338 97.551 21.536 98.1963 21.536ZM106.74 24C106.593 24 106.469 23.9487 106.366 23.846C106.263 23.7433 106.212 23.6187 106.212 23.472V13.11C106.212 12.9487 106.263 12.8167 106.366 12.714C106.469 12.6113 106.601 12.56 106.762 12.56H109.358C109.505 12.56 109.629 12.6113 109.732 12.714C109.849 12.8167 109.908 12.9487 109.908 13.11V21.14L108.918 20.656L114.352 12.912C114.425 12.8093 114.513 12.7287 114.616 12.67C114.719 12.5967 114.836 12.56 114.968 12.56H117.322C117.469 12.56 117.593 12.6113 117.696 12.714C117.799 12.8167 117.85 12.9413 117.85 13.088V23.45C117.85 23.6113 117.799 23.7433 117.696 23.846C117.593 23.9487 117.461 24 117.3 24H114.704C114.543 24 114.411 23.9487 114.308 23.846C114.205 23.7433 114.154 23.6113 114.154 23.45V15.662L115.166 15.86L109.688 23.648C109.629 23.7507 109.549 23.8387 109.446 23.912C109.343 23.9707 109.219 24 109.072 24H106.74ZM112.196 11.064C111.287 11.064 110.546 10.9247 109.974 10.646C109.402 10.3673 108.984 9.986 108.72 9.502C108.471 9.018 108.346 8.49 108.346 7.918C108.346 7.80067 108.375 7.70533 108.434 7.632C108.507 7.544 108.617 7.5 108.764 7.5H110.524C110.656 7.5 110.759 7.544 110.832 7.632C110.905 7.70533 110.942 7.80067 110.942 7.918C110.942 8.226 111.023 8.49733 111.184 8.732C111.36 8.96667 111.697 9.084 112.196 9.084C112.709 9.084 113.047 8.96667 113.208 8.732C113.384 8.49733 113.472 8.226 113.472 7.918C113.472 7.80067 113.509 7.70533 113.582 7.632C113.655 7.544 113.758 7.5 113.89 7.5H115.65C115.782 7.5 115.885 7.544 115.958 7.632C116.031 7.70533 116.068 7.80067 116.068 7.918C116.068 8.49 115.936 9.018 115.672 9.502C115.423 9.986 115.012 10.3673 114.44 10.646C113.868 10.9247 113.12 11.064 112.196 11.064ZM134.167 26.596C134.021 26.596 133.889 26.5373 133.771 26.42C133.669 26.3173 133.617 26.1853 133.617 26.024V24H120.791C120.63 24 120.498 23.9487 120.395 23.846C120.293 23.7433 120.241 23.6113 120.241 23.45V13.11C120.241 12.9487 120.293 12.8167 120.395 12.714C120.498 12.6113 120.63 12.56 120.791 12.56H123.255C123.402 12.56 123.527 12.6113 123.629 12.714C123.747 12.8167 123.805 12.9487 123.805 13.11V21.118H126.357V13.11C126.357 12.9487 126.409 12.8167 126.511 12.714C126.614 12.6113 126.746 12.56 126.907 12.56H129.151C129.313 12.56 129.445 12.6113 129.547 12.714C129.65 12.8167 129.701 12.9487 129.701 13.11V21.118H132.253V13.11C132.253 12.9487 132.305 12.8167 132.407 12.714C132.525 12.6113 132.657 12.56 132.803 12.56H135.267C135.429 12.56 135.561 12.6113 135.663 12.714C135.766 12.8167 135.817 12.9487 135.817 13.11V21.118H136.763C136.91 21.118 137.035 21.1693 137.137 21.272C137.255 21.3747 137.313 21.5067 137.313 21.668V26.024C137.313 26.1853 137.255 26.3173 137.137 26.42C137.035 26.5373 136.91 26.596 136.763 26.596H134.167ZM139.611 24C139.464 24 139.34 23.9487 139.237 23.846C139.134 23.7433 139.083 23.6187 139.083 23.472V13.11C139.083 12.9487 139.134 12.8167 139.237 12.714C139.34 12.6113 139.472 12.56 139.633 12.56H142.229C142.376 12.56 142.5 12.6113 142.603 12.714C142.72 12.8167 142.779 12.9487 142.779 13.11V21.14L141.789 20.656L147.223 12.912C147.296 12.8093 147.384 12.7287 147.487 12.67C147.59 12.5967 147.707 12.56 147.839 12.56H150.193C150.34 12.56 150.464 12.6113 150.567 12.714C150.67 12.8167 150.721 12.9413 150.721 13.088V23.45C150.721 23.6113 150.67 23.7433 150.567 23.846C150.464 23.9487 150.332 24 150.171 24H147.575C147.414 24 147.282 23.9487 147.179 23.846C147.076 23.7433 147.025 23.6113 147.025 23.45V15.662L148.037 15.86L142.559 23.648C142.5 23.7507 142.42 23.8387 142.317 23.912C142.214 23.9707 142.09 24 141.943 24H139.611ZM153.662 24C153.501 24 153.369 23.9487 153.266 23.846C153.164 23.7433 153.112 23.6113 153.112 23.45V13.11C153.112 12.9487 153.164 12.8167 153.266 12.714C153.369 12.6113 153.501 12.56 153.662 12.56H156.192C156.354 12.56 156.486 12.6113 156.588 12.714C156.691 12.8167 156.742 12.9487 156.742 13.11V16.762H157.93L160.328 12.912C160.372 12.8387 160.446 12.7653 160.548 12.692C160.651 12.604 160.783 12.56 160.944 12.56H163.76C163.892 12.56 164.002 12.604 164.09 12.692C164.193 12.7653 164.244 12.868 164.244 13C164.244 13.044 164.23 13.0953 164.2 13.154C164.186 13.2127 164.164 13.264 164.134 13.308L161.12 18.104L164.64 23.274C164.699 23.362 164.728 23.4573 164.728 23.56C164.728 23.692 164.684 23.802 164.596 23.89C164.508 23.9633 164.391 24 164.244 24H161.142C160.981 24 160.849 23.9707 160.746 23.912C160.658 23.8387 160.578 23.7507 160.504 23.648L157.886 19.644H156.742V23.45C156.742 23.6113 156.691 23.7433 156.588 23.846C156.486 23.9487 156.354 24 156.192 24H153.662Z" fill="#FF9EF5"/>
</g>
<path d="M171 21C171 21 178.851 21 181.992 21C185.133 21 186.075 23.2545 183.562 25" stroke="#FFA4F7" stroke-linecap="round" stroke-linejoin="round"/>
<path d="M171 15C171 15 178.851 15 181.992 15C185.133 15 186.075 12.7455 183.562 11" stroke="#FFA4F7" stroke-linecap="round" stroke-linejoin="round"/>
<path d="M172 18L183 18" stroke="white" stroke-linecap="round" stroke-linejoin="round"/>
<defs>
<filter id="filter0_d_9_1501" x="0.540009" y="0.0600586" width="171.188" height="33.5359" filterUnits="userSpaceOnUse" color-interpolation-filters="sRGB">
<feFlood flood-opacity="0" result="BackgroundImageFix"/>
<feColorMatrix in="SourceAlpha" type="matrix" values="0 0 0 0 0 0 0 0 0 0 0 0 0 0 0 0 0 0 127 0" result="hardAlpha"/>
<feOffset/>
<feGaussianBlur stdDeviation="3.5"/>
<feComposite in2="hardAlpha" operator="out"/>
<feColorMatrix type="matrix" values="0 0 0 0 1 0 0 0 0 1 0 0 0 0 1 0 0 0 0.55 0"/>
<feBlend mode="normal" in2="BackgroundImageFix" result="effect1_dropShadow_9_1501"/>
<feBlend mode="normal" in="SourceGraphic" in2="effect1_dropShadow_9_1501" result="shape"/>
</filter>
</defs>
</svg>
